REM DIRINDEX 1\2\6,1\2\7,1\2\8,1\3\9,1\3\10,1\3\11,1\4\12,1\4\13,1\4\14,1\5\15,1\5\16,1\5\17,1\5\18
REM DIRNAME cjc019,folder01,folder02,folder03,folder04,folder05,folder06,folder07,folder08,folder09,folder10,folder11,folder12,folder13,folder14,folder15,folder16,folder17
TITLE ""
FILE "2Q_t_0284-0301.mp3" MP3
  TRACK 01 AUDIO
    TITLE "13:cjc019_2624"
    INDEX 01 00:00:00
  TRACK 02 AUDIO
    TITLE "0:"
    INDEX 01 00:00:64
  TRACK 03 AUDIO
    TITLE "14:cjc019_2625"
    INDEX 01 00:01:42
  TRACK 04 AUDIO
    TITLE "0:"
    INDEX 01 00:05:18
  TRACK 05 AUDIO
    TITLE "13:cjc019_2626"
    INDEX 01 00:05:73
  TRACK 06 AUDIO
    TITLE "0:"
    INDEX 01 00:07:09
  TRACK 07 AUDIO
    TITLE "14:cjc019_2627"
    INDEX 01 00:07:66
  TRACK 08 AUDIO
    TITLE "0:"
    INDEX 01 00:12:42
  TRACK 09 AUDIO
    TITLE "13:cjc019_2628"
    INDEX 01 00:13:22
  TRACK 10 AUDIO
    TITLE "0:"
    INDEX 01 00:14:39
  TRACK 11 AUDIO
    TITLE "14:cjc019_2629"
    INDEX 01 00:15:28
  TRACK 12 AUDIO
    TITLE "0:"
    INDEX 01 00:16:53
  TRACK 13 AUDIO
    TITLE "13:cjc019_2630"
    INDEX 01 00:17:25
  TRACK 14 AUDIO
    TITLE "0:"
    INDEX 01 00:18:48
  TRACK 15 AUDIO
    TITLE "14:cjc019_2631"
    INDEX 01 00:19:30
  TRACK 16 AUDIO
    TITLE "0:"
    INDEX 01 00:20:20
  TRACK 17 AUDIO
    TITLE "13:cjc019_2632"
    INDEX 01 00:21:06
  TRACK 18 AUDIO
    TITLE "0:"
    INDEX 01 00:22:36
  TRACK 19 AUDIO
    TITLE "14:cjc019_2633"
    INDEX 01 00:23:16
  TRACK 20 AUDIO
    TITLE "0:"
    INDEX 01 00:28:35
  TRACK 21 AUDIO
    TITLE "13:cjc019_2634"
    INDEX 01 00:29:27
  TRACK 22 AUDIO
    TITLE "0:"
    INDEX 01 00:30:36
  TRACK 23 AUDIO
    TITLE "14:cjc019_2635"
    INDEX 01 00:31:26
  TRACK 24 AUDIO
    TITLE "0:"
    INDEX 01 00:34:49
  TRACK 25 AUDIO
    TITLE "13:cjc019_2636"
    INDEX 01 00:35:25
  TRACK 26 AUDIO
    TITLE "0:"
    INDEX 01 00:36:70
  TRACK 27 AUDIO
    TITLE "14:cjc019_2637"
    INDEX 01 00:37:57
  TRACK 28 AUDIO
    TITLE "0:"
    INDEX 01 00:39:39
  TRACK 29 AUDIO
    TITLE "13:cjc019_2638"
    INDEX 01 00:40:19
  TRACK 30 AUDIO
    TITLE "0:"
    INDEX 01 00:41:26
  TRACK 31 AUDIO
    TITLE "14:cjc019_2639"
    INDEX 01 00:42:06
  TRACK 32 AUDIO
    TITLE "0:"
    INDEX 01 00:45:20
  TRACK 33 AUDIO
    TITLE "13:cjc019_2640"
    INDEX 01 00:45:73
  TRACK 34 AUDIO
    TITLE "0:"
    INDEX 01 00:47:11
  TRACK 35 AUDIO
    TITLE "14:cjc019_2641"
    INDEX 01 00:47:70
  TRACK 36 AUDIO
    TITLE "0:"
    INDEX 01 00:49:02
  TRACK 37 AUDIO
    TITLE "13:cjc019_2642"
    INDEX 01 00:49:59
  TRACK 38 AUDIO
    TITLE "0:"
    INDEX 01 00:51:03
  TRACK 39 AUDIO
    TITLE "14:cjc019_2643"
    INDEX 01 00:51:62
  TRACK 40 AUDIO
    TITLE "0:"
    INDEX 01 00:52:63
  TRACK 41 AUDIO
    TITLE "13:cjc019_2644"
    INDEX 01 00:53:43
  TRACK 42 AUDIO
    TITLE "0:"
    INDEX 01 00:54:60
  TRACK 43 AUDIO
    TITLE "14:cjc019_2645"
    INDEX 01 00:55:40
  TRACK 44 AUDIO
    TITLE "0:"
    INDEX 01 00:59:16
  TRACK 45 AUDIO
    TITLE "13:cjc019_2646"
    INDEX 01 00:59:67
  TRACK 46 AUDIO
    TITLE "0:"
    INDEX 01 01:01:09
  TRACK 47 AUDIO
    TITLE "14:cjc019_2647"
    INDEX 01 01:01:68
  TRACK 48 AUDIO
    TITLE "0:"
    INDEX 01 01:04:09
  TRACK 49 AUDIO
    TITLE "13:cjc019_2648"
    INDEX 01 01:04:58
  TRACK 50 AUDIO
    TITLE "0:"
    INDEX 01 01:05:73
  TRACK 51 AUDIO
    TITLE "14:cjc019_2649"
    INDEX 01 01:06:57
  TRACK 52 AUDIO
    TITLE "0:"
    INDEX 01 01:10:06
  TRACK 53 AUDIO
    TITLE "13:cjc019_2650"
    INDEX 01 01:10:69
  TRACK 54 AUDIO
    TITLE "0:"
    INDEX 01 01:12:05
  TRACK 55 AUDIO
    TITLE "14:cjc019_2651"
    INDEX 01 01:12:62
  TRACK 56 AUDIO
    TITLE "0:"
    INDEX 01 01:16:12
  TRACK 57 AUDIO
    TITLE "13:cjc019_2652"
    INDEX 01 01:16:71
  TRACK 58 AUDIO
    TITLE "0:"
    INDEX 01 01:17:59
  TRACK 59 AUDIO
    TITLE "14:cjc019_2653"
    INDEX 01 01:18:58
  TRACK 60 AUDIO
    TITLE "0:"
    INDEX 01 01:21:31
  TRACK 61 AUDIO
    TITLE "13:cjc019_2654"
    INDEX 01 01:22:11
  TRACK 62 AUDIO
    TITLE "0:"
    INDEX 01 01:23:44
  TRACK 63 AUDIO
    TITLE "14:cjc019_2655"
    INDEX 01 01:24:28
  TRACK 64 AUDIO
    TITLE "0:"
    INDEX 01 01:27:08
  TRACK 65 AUDIO
    TITLE "13:cjc019_2656"
    INDEX 01 01:27:63
  TRACK 66 AUDIO
    TITLE "0:"
    INDEX 01 01:28:61
  TRACK 67 AUDIO
    TITLE "14:cjc019_2657"
    INDEX 01 01:29:41
  TRACK 68 AUDIO
    TITLE "0:"
    INDEX 01 01:33:34
  TRACK 69 AUDIO
    TITLE "13:cjc019_2658"
    INDEX 01 01:34:14
  TRACK 70 AUDIO
    TITLE "0:"
    INDEX 01 01:35:29
  TRACK 71 AUDIO
    TITLE "14:cjc019_2659"
    INDEX 01 01:36:11
  TRACK 72 AUDIO
    TITLE "0:"
    INDEX 01 01:39:61
